<?xml version="1.0" standalone="no"?>
<!DOCTYPE svg PUBLIC "-//W3C//DTD SVG 20010904//EN"
 "http://www.w3.org/TR/2001/REC-SVG-20010904/DTD/svg10.dtd">
<svg version="1.0" xmlns="http://www.w3.org/2000/svg"
 width="158.000000pt" height="228.000000pt" viewBox="0 0 158.000000 228.000000"
 preserveAspectRatio="xMidYMid meet">
<metadata>
Created by potrace 1.15, written by Peter Selinger 2001-2017
</metadata>
<g transform="translate(0.000000,228.000000) scale(0.100000,-0.100000)"
fill="#fff" stroke="none">
<path d="M685 2002 l-100 -58 -3 -214 c-1 -134 -6 -218 -13 -226 -6 -8 -48
-34 -94 -59 -46 -25 -86 -52 -89 -61 -3 -8 -6 -110 -6 -225 0 -260 -7 -279
-108 -304 -35 -9 -47 -17 -47 -31 0 -29 76 -22 125 10 l38 25 16 -72 c16 -68
16 -73 -1 -85 -24 -17 -110 -42 -145 -42 -32 0 -49 -27 -27 -41 17 -12 89 -3
144 18 62 22 63 22 94 -44 l30 -62 -57 -22 c-31 -12 -93 -27 -136 -33 -81 -12
-99 -23 -72 -45 20 -17 151 3 230 35 33 13 60 23 61 21 1 -1 18 -25 38 -53 20
-29 37 -54 37 -56 0 -10 -115 -57 -175 -73 -33 -8 -91 -18 -128 -22 -71 -6
-86 -15 -67 -38 23 -28 225 9 339 61 l73 34 56 -51 c81 -74 93 -78 139 -44 21
15 54 43 73 61 l35 33 62 -30 c79 -38 189 -66 278 -70 65 -4 70 -2 73 17 3 19
-3 22 -70 28 -88 8 -172 29 -246 62 -31 13 -58 26 -60 28 -1 2 16 29 39 60 31
42 47 55 58 50 64 -29 156 -53 211 -56 61 -3 65 -2 68 20 3 19 -1 22 -35 22
-64 0 -200 38 -231 65 -2 1 10 29 25 61 15 33 28 60 28 61 1 2 24 -6 52 -17
28 -11 75 -21 105 -22 47 -3 53 -1 53 17 0 16 -9 21 -54 27 -29 5 -73 17 -97
27 l-43 19 15 54 c7 29 14 63 14 76 0 27 1 27 44 -2 41 -27 104 -42 119 -27
15 15 0 41 -25 41 -31 0 -83 33 -105 67 -16 24 -19 61 -23 362 l-5 336 -92 53
-93 54 0 102 c0 55 -4 106 -8 112 -7 12 -199 124 -210 124 -4 0 -52 -26 -107
-58z m85 -298 l0 -285 -57 32 c-100 56 -93 36 -93 260 l0 198 73 41 c39 22 73
40 75 40 1 0 2 -129 2 -286z m178 213 c8 -6 12 -40 12 -102 l0 -93 -37 -23
c-21 -12 -53 -31 -70 -41 l-33 -20 0 177 0 176 58 -32 c31 -18 63 -37 70 -42z
m10 -664 c-3 -399 -4 -409 -27 -475 -13 -38 -27 -68 -31 -68 -9 0 -55 102 -69
155 -7 25 -11 167 -11 380 l0 340 63 37 c34 20 66 37 70 37 5 1 7 -182 5 -406z
m129 368 l68 -39 -2 -358 c-2 -354 -11 -470 -38 -468 -6 0 -24 19 -42 43 -59
77 -63 106 -63 503 0 197 2 358 4 358 2 0 35 -17 73 -39z m-509 -445 l-4 -263
-32 -65 c-30 -62 -66 -107 -77 -96 -3 3 -12 40 -20 82 -11 55 -15 145 -15 304
l0 227 68 37 c37 21 71 38 76 38 5 0 7 -116 4 -264z m122 226 l65 -38 2 -214
c2 -158 -2 -232 -12 -278 -17 -72 -63 -168 -75 -156 -18 21 -43 122 -51 212
-10 120 -12 512 -1 512 4 0 36 -17 72 -38z m-100 -608 c0 -8 11 -42 25 -76 28
-70 28 -70 -48 -130 l-37 -30 -30 65 -29 64 44 48 c24 26 47 56 50 66 7 21 25
16 25 -7z m463 -61 c37 -40 38 -44 27 -75 -6 -18 -19 -48 -29 -67 l-18 -35
-53 50 -52 50 29 82 c27 80 28 82 43 60 8 -13 32 -42 53 -65z m-203 -52 l19
-28 -41 -61 c-23 -33 -45 -59 -49 -57 -3 3 -23 28 -43 57 l-36 53 42 82 41 82
24 -50 c12 -28 32 -63 43 -78z m-133 -146 l33 -43 -49 -41 c-27 -23 -53 -41
-59 -41 -6 0 -27 23 -48 51 l-37 51 54 49 c46 40 56 46 64 32 6 -8 25 -35 42
-58z m286 -15 c9 -8 -68 -110 -82 -110 -5 0 -30 19 -55 43 l-47 42 42 58 41
58 47 -42 c25 -23 50 -45 54 -49z m-164 -202 l-53 -47 -26 19 c-14 10 -38 32
-55 49 l-29 31 24 17 c14 10 38 29 54 44 l30 27 54 -47 54 -46 -53 -47z"/>
</g>
</svg>
